<?xml version="1.0" encoding="UTF-8" standalone="no"?>
<svg
   xmlns:dc="http://purl.org/dc/elements/1.1/"
   xmlns:cc="http://creativecommons.org/ns#"
   xmlns:rdf="http://www.w3.org/1999/02/22-rdf-syntax-ns#"
   xmlns:svg="http://www.w3.org/2000/svg"
   xmlns="http://www.w3.org/2000/svg"
   xmlns:sodipodi="http://sodipodi.sourceforge.net/DTD/sodipodi-0.dtd"
   xmlns:inkscape="http://www.inkscape.org/namespaces/inkscape"
   viewBox="0 0 1161 876"
   version="1.1"
   id="svg2"
   inkscape:version="0.91 r13725"
   sodipodi:docname="CONTOURS250K_ARC.svg">
  <metadata
     id="metadata161">
    <rdf:RDF>
      <cc:Work
         rdf:about="">
        <dc:format>image/svg+xml</dc:format>
        <dc:type
           rdf:resource="http://purl.org/dc/dcmitype/StillImage" />
      </cc:Work>
    </rdf:RDF>
  </metadata>
  <defs
     id="defs159" />
  <sodipodi:namedview
     pagecolor="#ffffff"
     bordercolor="#666666"
     borderopacity="1"
     objecttolerance="10"
     gridtolerance="10"
     guidetolerance="10"
     inkscape:pageopacity="0"
     inkscape:pageshadow="2"
     inkscape:window-width="1920"
     inkscape:window-height="1015"
     id="namedview157"
     showgrid="false"
     inkscape:zoom="0.19049909"
     inkscape:cx="3335.3306"
     inkscape:cy="249.38512"
     inkscape:window-x="0"
     inkscape:window-y="0"
     inkscape:window-maximized="1"
     inkscape:current-layer="r_contours250k_arc_linestring" />
  <!-- svg generated using QGIS www.qgis.org -->
  <g
     id="r_contours250k_arc_linestring"
     inkscape:groupmode="layer"
     inkscape:label="r_contours250k_arc_linestring">
    <g
       style="fill:none;stroke:#006b00;stroke-width:2;stroke-linejoin:bevel;stroke-miterlimit:4;stroke-dasharray:none;stroke-opacity:1"
       id="r_contours250k_arc_linestring_1">
      <path
         inkscape:connector-curvature="0"
         style="stroke:#006b00;stroke-width:2;stroke-linejoin:bevel;stroke-miterlimit:4;stroke-dasharray:none;stroke-opacity:1"
         id="path8"
         d="m 1595,1067 -14,-15 -9,-19 -9,-22 -5,-23 -5,-22 -5,-22 -4,-23 1,-22 2,-23 2,-22 2,-22 2,-23 2,-22 -1,-22 -1,-23 -12,-22 -22,-23 -18,-3 -17,-3 -16,4 -17,3 -17,5 -16,4 -17,3 -17,4 -17,4 -16,5 -17,4 -17,4 -16,2 -17,2 -16,-2 -17,-2 -17,-7 -16,-8 -17,-10 -16,-12 -16,-7 -17,-7 -17,-2 -16,-3 -17,-3 -16,-4 -17,-6 -16,-6 -17,-7 -16,-7 -17,-7 -16,-9 -17,-12 -16,-15" />
    </g>
    <g
       style="fill:none;stroke:#006b00;stroke-width:2;stroke-linejoin:bevel;stroke-miterlimit:4;stroke-dasharray:none;stroke-opacity:1"
       id="r_contours250k_arc_linestring_2">
      <path
         inkscape:connector-curvature="0"
         style="stroke:#006b00;stroke-width:2;stroke-linejoin:bevel;stroke-miterlimit:4;stroke-dasharray:none;stroke-opacity:1"
         id="path11"
         d="m 248,1107 17,-21 17,-20 15,-30 7,-22 5,-22 2,-23 1,-22 -4,-22 -4,-23 -5,-22 -6,-23 -6,-22 -7,-23 -7,-22 -5,-23 -6,-22 -5,-22 -7,-23 -11,-22 -5,-23 -8,-22 -3,-23 -3,-22 15,-22 20,-22 18,-7 17,-4 17,2 16,2 16,8 17,8 17,8 16,9 17,11 15,11 18,10 16,9 17,10 16,9 17,8 16,8 17,4 16,5" />
    </g>
    <g
       style="fill:none;stroke:#006b00;stroke-width:2;stroke-linejoin:bevel;stroke-miterlimit:4;stroke-dasharray:none;stroke-opacity:1"
       id="r_contours250k_arc_linestring_3">
      <path
         inkscape:connector-curvature="0"
         style="stroke:#006b00;stroke-width:2;stroke-linejoin:bevel;stroke-miterlimit:4;stroke-dasharray:none;stroke-opacity:1"
         id="path14"
         d="m 241,1552 -16,-10 -14,-15 -12,-22 -9,-23 -11,-22 -8,-23 -11,-21 -11,-24 -19,-23 -18,-22 -17,-18 -16,-19 -17,-19 -16,-21 -16,-27 -16,-29 -9,-26 -8,-22 -1,-22 -2,-23 6,-21 6,-23 8,-23 8,-22 9,-22 15,-22 15,-22 17,-14 23,-3 16,1 17,3 17,2 16,2 17,1 17,-9 7,-26 -1,-22 -15,-23 -9,-20 L 169,839 157,811 137,788 125,765 106,745 91,720 71,702 55,677 41,656 39,652" />
    </g>
    <g
       style="fill:none;stroke:#006b00;stroke-width:2;stroke-linejoin:bevel;stroke-miterlimit:4;stroke-dasharray:none;stroke-opacity:1"
       id="r_contours250k_arc_linestring_4">
      <path
         inkscape:connector-curvature="0"
         style="stroke:#006b00;stroke-width:2;stroke-linejoin:bevel;stroke-miterlimit:4;stroke-dasharray:none;stroke-opacity:1"
         id="path17"
         d="m -410,749 16,-6 17,-6 17,-4 17,-3 16,-3 17,-3 16,-1 17,-1 17,-4 16,-5 17,-10 17,-8 17,-10 17,-7 16,-14 17,-13 16,-24 7,-22 9,-19 5,-26 3,-22 5,-22 5,-23 8,-22 10,-20 10,-24 15,-22 22,-22 22,-11 16,-10 17,-13 12,-16 9,-34 L 45,275 34,249 24,227 13,209 2,182 -9,159 -19,137" />
    </g>
    <g
       style="fill:none;stroke:#006b00;stroke-width:2;stroke-linejoin:bevel;stroke-miterlimit:4;stroke-dasharray:none;stroke-opacity:1"
       id="r_contours250k_arc_linestring_5">
      <path
         inkscape:connector-curvature="0"
         style="stroke:#006b00;stroke-width:2;stroke-linejoin:bevel;stroke-miterlimit:4;stroke-dasharray:none;stroke-opacity:1"
         id="path20"
         d="m 592,808 26,-12 17,-23 16,-22 10,-22 11,-19 12,-26 8,-22 7,-22 6,-21 5,-24 3,-22 3,-22 1,-23 1,-22 4,-22 5,-23 5,-22 5,-22 5,-23 5,-22 3,-22 3,-22 6,-22 8,-23 13,-17 21,-16 21,-5 21,-1 17,0 16,1 17,2 16,0 17,-1 17,-4 16,-4 17,-6 17,-8 16,-7 17,-12 17,-14 17,-15 17,-19" />
    </g>
    <g
       style="fill:none;stroke:#006b00;stroke-width:2;stroke-linejoin:bevel;stroke-miterlimit:4;stroke-dasharray:none;stroke-opacity:1"
       id="r_contours250k_arc_linestring_6">
      <path
         inkscape:connector-curvature="0"
         style="stroke:#006b00;stroke-width:2;stroke-linejoin:bevel;stroke-miterlimit:4;stroke-dasharray:none;stroke-opacity:1"
         id="path23"
         d="m 252,818 -10,-29 -9,-22 -10,-23 -11,-22 -11,-18 -13,-20 -16,-29 -14,-23 -4,-23 -4,-22 7,-22 9,-23 13,-15 19,-19 20,-18 19,-8 16,-6 21,0 17,1 16,7 17,5 16,8 17,9 16,12 17,10 16,12 17,11 16,8 17,8 16,9 17,7 16,4 17,3 16,0 17,1 17,-6 17,-9 17,-21 15,-28 6,-22" />
    </g>
    <g
       style="fill:none;stroke:#006b00;stroke-width:2;stroke-linejoin:bevel;stroke-miterlimit:4;stroke-dasharray:none;stroke-opacity:1"
       id="r_contours250k_arc_linestring_7">
      <path
         inkscape:connector-curvature="0"
         style="stroke:#006b00;stroke-width:2;stroke-linejoin:bevel;stroke-miterlimit:4;stroke-dasharray:none;stroke-opacity:1"
         id="path26"
         d="m 93,392 17,-30 4,-22 4,-22 -3,-23 -3,-22 -8,-23 L 94,230 83,205 68,183 58,160 49,138 39,115 28,96 18,75 2,48 -8,25 -24,2 l -7,-21 -18,-18 17,-25 17,-9 15,-6 17,1 17,1 16,11 17,8 12,16 17,23 15,21 11,23 12,19 9,26 10,23 11,22 7,23 8,21 13,24 10,22 10,22 11,23 5,8" />
    </g>
    <g
       style="fill:none;stroke:#006b00;stroke-width:2;stroke-linejoin:bevel;stroke-miterlimit:4;stroke-dasharray:none;stroke-opacity:1"
       id="r_contours250k_arc_linestring_8">
      <path
         inkscape:connector-curvature="0"
         style="stroke:#006b00;stroke-width:2;stroke-linejoin:bevel;stroke-miterlimit:4;stroke-dasharray:none;stroke-opacity:1"
         id="path29"
         d="m 608,392 8,-22 3,-22 3,-22 -1,-23 -1,-22 -4,-23 -3,-22 -3,-22 -2,-23 2,-22 3,-23 12,-22 20,-22 18,-14 15,-10 18,-12 17,-6 16,-7 17,-4 17,-3 16,3 17,4 16,7 17,5 17,3 16,2 17,-5 17,-10 13,-21 11,-30 1,-31 -8,-21 -8,-24 -3,-5" />
    </g>
    <g
       style="fill:none;stroke:#006b00;stroke-width:2;stroke-linejoin:bevel;stroke-miterlimit:4;stroke-dasharray:none;stroke-opacity:1"
       id="r_contours250k_arc_linestring_9">
      <path
         inkscape:connector-curvature="0"
         style="stroke:#006b00;stroke-width:2;stroke-linejoin:bevel;stroke-miterlimit:4;stroke-dasharray:none;stroke-opacity:1"
         id="path32"
         d="m -553,342 16,-7 17,-6 17,-7 16,-6 17,-7 17,-9 17,-10 16,-12 16,-11 18,-15 17,-15 17,-14 17,-19 17,-16 14,-14 18,-19 18,-20 17,-19 17,-18 17,-14 17,-11 16,-10 17,-9 17,-9 17,-8 16,-10 17,-9 17,2 16,2 17,13 15,14 14,21 13,22 12,23 10,18 12,27 11,22 9,20 14,25 10,23 8,19 4,26 3,22 -6,23 -7,22 -12,17 -17,12 -17,11 -17,15" />
    </g>
    <g
       style="fill:none;stroke:#006b00;stroke-width:2;stroke-linejoin:bevel;stroke-miterlimit:4;stroke-dasharray:none;stroke-opacity:1"
       id="r_contours250k_arc_linestring_10">
      <path
         inkscape:connector-curvature="0"
         style="stroke:#006b00;stroke-width:2;stroke-linejoin:bevel;stroke-miterlimit:4;stroke-dasharray:none;stroke-opacity:1"
         id="path35"
         d="m 491,462 -17,-6 -16,-6 -17,-12 -16,-11 -17,-11 -16,-10 -17,-11 -16,-11 -17,-13 -16,-14 -14,-17 -16,-19 -16,-23 -13,-23 -13,-22 -9,-20 -10,-25 -10,-23 -10,-22 -9,-23 -9,-22 -9,-23 -8,-21 -9,-24 -10,-22 -11,-23 -12,-21 -14,-23 -10,-20 -14,-24 -16,-23 -16,-18 -17,-11 -16,-13 -17,-8 -16,-8 -16,-6 -17,-6 -16,-8 -16,-8 -16,-7 -17,-8 -17,-9 -16,-10 -17,-9 -15,-10 -18,-11 -15,-12 -17,-12 -17,-14 -15,-19 -15,-23 -8,-22 -6,-23 -5,-22 -9,-23 -10,-22 -12,-20 -16,-23 -17,-9 -16,-9 -17,1 -17,1 -16,9 -17,10 -17,12 -17,14 -17,14 -16,14 -17,13 -15,12 -19,16 -17,17 -17,19 -15,16 -19,22 -16,17 -17,15 -15,14 -19,12 -17,9 -16,8 -17,8 -17,6 -17,6 -16,6 -17,5 -17,2 -16,3 -17,-2 -16,-1 -17,-5 -17,-5 -16,-9 -16,-12 -17,-12 -16,-14 -17,-18 -12,-16 -15,-23 -14,-23 -10,-19 -7,-26 -6,-22 0,-23" />
    </g>
    <g
       style="fill:none;stroke:#006b00;stroke-width:2;stroke-linejoin:bevel;stroke-miterlimit:4;stroke-dasharray:none;stroke-opacity:1"
       id="r_contours250k_arc_linestring_11">
      <path
         inkscape:connector-curvature="0"
         style="stroke:#006b00;stroke-width:2;stroke-linejoin:bevel;stroke-miterlimit:4;stroke-dasharray:none;stroke-opacity:1"
         id="path38"
         d="m 93,392 -17,23 -17,17 -17,12 -17,12 -14,17 -15,17 -15,27 -11,22 -9,22 -7,23 -5,22 -7,22 -7,22 -10,23 -13,22 -22,22 -17,22 -17,13 -16,9 -18,11 -17,10 -16,6 -17,2 -17,2 -16,-1 -17,-1 -17,-2 -16,-1 -17,1 -16,1 -17,4 -17,5 -17,7 -16,6 -17,7 -17,9 -16,7 -17,10 -17,7 -17,6 -16,4 -17,4 -17,1 -16,3 -17,-4 -16,-8 -17,-19 -16,-34 -4,-28 -2,-23 -1,-22 0,-23 -1,-22 -1,-22 -3,-23 -5,-22 -4,-23 -5,-22 -5,-23 -4,-22 0,-22 -1,-23 2,-22 1,-22 4,-23 5,-22" />
    </g>
    <g
       style="fill:none;stroke:#006b00;stroke-width:2;stroke-linejoin:bevel;stroke-miterlimit:4;stroke-dasharray:none;stroke-opacity:1"
       id="r_contours250k_arc_linestring_12">
      <path
         inkscape:connector-curvature="0"
         style="stroke:#006b00;stroke-width:2;stroke-linejoin:bevel;stroke-miterlimit:4;stroke-dasharray:none;stroke-opacity:1"
         id="path41"
         d="m 608,392 -8,23 -15,22 -19,22 -22,17 -21,11 -16,1 -17,1 -16,-6 -17,-6 -16,-10 -17,-10 -16,-12 -17,-11 -16,-11 -17,-10 -16,-12 -16,-13 -17,-16 -16,-18 -14,-14 -14,-20 -18,-23 -12,-22 -7,-15" />
    </g>
    <g
       style="fill:none;stroke:#006b00;stroke-width:2;stroke-linejoin:bevel;stroke-miterlimit:4;stroke-dasharray:none;stroke-opacity:1"
       id="r_contours250k_arc_linestring_13">
      <path
         inkscape:connector-curvature="0"
         style="stroke:#006b00;stroke-width:2;stroke-linejoin:bevel;stroke-miterlimit:4;stroke-dasharray:none;stroke-opacity:1"
         id="path44"
         d="m 594,79 16,-22 19,-22 18,-13 15,-11 18,-11 16,-8 18,-6 17,-5 16,-2 17,-2 16,3 17,3 17,1 16,2 16,-14 -2,-22 -1,-23 -9,-22 -8,-23 -7,-22 -4,-23 -6,-22 -4,-23 -3,-22 -3,-22 -6,-23 -6,-22 -6,-23 -5,-22 -7,-22 -10,-23 -6,-23" />
    </g>
    <g
       style="fill:none;stroke:#006b00;stroke-width:2;stroke-linejoin:bevel;stroke-miterlimit:4;stroke-dasharray:none;stroke-opacity:1"
       id="r_contours250k_arc_linestring_14">
      <path
         inkscape:connector-curvature="0"
         style="stroke:#006b00;stroke-width:2;stroke-linejoin:bevel;stroke-miterlimit:4;stroke-dasharray:none;stroke-opacity:1"
         id="path47"
         d="m 739,551 2,-22 1,-23 4,-22 3,-22 5,-23 4,-22 6,-22 5,-22 4,-23 5,-22 9,-22 14,-22 18,-10 17,-3 23,-2 17,3 16,3 17,4 16,4 17,6 16,12 17,17 10,21 6,30 9,29 6,23 10,22 9,20 14,16 16,18 16,14 17,13 16,9 17,10 16,10 7,4" />
    </g>
    <g
       style="fill:none;stroke:#006b00;stroke-width:2;stroke-linejoin:bevel;stroke-miterlimit:4;stroke-dasharray:none;stroke-opacity:1"
       id="r_contours250k_arc_linestring_15">
      <path
         inkscape:connector-curvature="0"
         style="stroke:#006b00;stroke-width:2;stroke-linejoin:bevel;stroke-miterlimit:4;stroke-dasharray:none;stroke-opacity:1"
         id="path50"
         d="m 787,619 5,-22 5,-23 4,-22 2,-22 2,-23 3,-22 3,-22 3,-23 2,-22 6,-22 11,-22 17,-11 24,10 16,22 12,24 5,21 8,24 5,23 5,22 4,23 5,22 8,22 12,23" />
    </g>
    <g
       style="fill:none;stroke:#006b00;stroke-width:2;stroke-linejoin:bevel;stroke-miterlimit:4;stroke-dasharray:none;stroke-opacity:1"
       id="r_contours250k_arc_linestring_16">
      <path
         inkscape:connector-curvature="0"
         style="stroke:#006b00;stroke-width:2;stroke-linejoin:bevel;stroke-miterlimit:4;stroke-dasharray:none;stroke-opacity:1"
         id="path53"
         d="m 773,484 3,-22 4,-22 3,-23 5,-22 5,-22 8,-22 10,-23 14,-16 17,-5 17,-5 16,8 17,9 16,15 13,18 14,23 9,23 7,22 7,22 7,23 8,21 12,24 14,23 20,22 18,15 17,12 16,10 16,9 17,7 17,7 16,5 17,5 16,9 17,10 4,3" />
    </g>
    <g
       style="fill:none;stroke:#006b00;stroke-width:2;stroke-linejoin:bevel;stroke-miterlimit:4;stroke-dasharray:none;stroke-opacity:1"
       id="r_contours250k_arc_linestring_17">
      <path
         inkscape:connector-curvature="0"
         style="stroke:#006b00;stroke-width:2;stroke-linejoin:bevel;stroke-miterlimit:4;stroke-dasharray:none;stroke-opacity:1"
         id="path56"
         d="m 994,139 14,-12 18,-19 18,-22 16,-22 7,-22 6,-23 2,-21 3,-22 0,-23 -1,-22 -5,-23 -6,-22 -11,-23 -13,-22 -17,-23 -17,-22 -13,-23 -12,-19 -7,-26 -8,-23 5,-22 6,-22 21,-22 18,-9 17,-5 17,-1 16,0 17,-6 17,-7 15,-13 18,-15 17,-28 13,-20 11,-28 5,-22 7,-21 6,-24 4,-22 3,-18" />
    </g>
    <g
       style="fill:none;stroke:#006b00;stroke-width:2;stroke-linejoin:bevel;stroke-miterlimit:4;stroke-dasharray:none;stroke-opacity:1"
       id="r_contours250k_arc_linestring_18">
      <path
         inkscape:connector-curvature="0"
         style="stroke:#006b00;stroke-width:2;stroke-linejoin:bevel;stroke-miterlimit:4;stroke-dasharray:none;stroke-opacity:1"
         id="path59"
         d="m 396,152 -16,-9 -17,-16 -12,-29 -7,-23 -7,-22 2,-23 2,-22 10,-17 14,-18 17,-7 17,-4 16,7 17,8 14,14 15,19 4,22 3,23 -5,22 -7,22 -12,19 -15,21 -17,7 -16,6" />
    </g>
    <g
       style="fill:none;stroke:#006b00;stroke-width:2;stroke-linejoin:bevel;stroke-miterlimit:4;stroke-dasharray:none;stroke-opacity:1"
       id="r_contours250k_arc_linestring_19">
      <path
         inkscape:connector-curvature="0"
         style="stroke:#006b00;stroke-width:2;stroke-linejoin:bevel;stroke-miterlimit:4;stroke-dasharray:none;stroke-opacity:1"
         id="path62"
         d="m 1077,157 17,-24 11,-24 8,-20 6,-24 2,-23 1,-22 1,-21 0,-23 0,-22 0,-22 -1,-23 -1,-22 -4,-23 -5,-22 -8,-23 -13,-22 -6,-23 -10,-22 9,-21 12,-24 21,-10 17,-10 17,-13 13,-14 20,-18 16,-22 17,-23 9,-22 4,-7" />
    </g>
    <g
       style="fill:none;stroke:#006b00;stroke-width:2;stroke-linejoin:bevel;stroke-miterlimit:4;stroke-dasharray:none;stroke-opacity:1"
       id="r_contours250k_arc_linestring_20">
      <path
         inkscape:connector-curvature="0"
         style="stroke:#006b00;stroke-width:2;stroke-linejoin:bevel;stroke-miterlimit:4;stroke-dasharray:none;stroke-opacity:1"
         id="path65"
         d="m 861,177 16,-1 17,-1 17,-6 16,-7 16,-11 18,-16 17,-15 15,-15 17,-20 17,-22 10,-22 8,-22 3,-21 4,-23 -1,-22 -2,-23 -7,-22 -8,-23 -16,-22 -17,-23 -18,-22 -17,-22 -11,-17 -21,-29 -8,-23 -8,-22 -2,-23 -3,-22 0,-22 -1,-23 1,-22 1,-23 0,-22 1,-22 6,-23" />
    </g>
    <g
       style="fill:none;stroke:#006b00;stroke-width:2;stroke-linejoin:bevel;stroke-miterlimit:4;stroke-dasharray:none;stroke-opacity:1"
       id="r_contours250k_arc_linestring_21">
      <path
         inkscape:connector-curvature="0"
         style="stroke:#006b00;stroke-width:2;stroke-linejoin:bevel;stroke-miterlimit:4;stroke-dasharray:none;stroke-opacity:1"
         id="path68"
         d="m 394,234 -16,-6 -17,-6 -13,-16 -13,-19 -12,-23 -9,-22 -7,-23 -7,-22 -6,-23 -7,-22 -1,-22 -2,-23 4,-21 5,-22 14,-23 23,-22 20,-10 16,-6 17,-2 17,-3 16,1 17,1 16,5 17,7 16,16 13,16 12,23 6,22 4,22 -1,22 -1,22 -4,23 -4,22 -8,22 -9,23 -10,20 -18,24 -17,19 -17,15 -17,6 -17,5" />
    </g>
    <g
       style="fill:none;stroke:#006b00;stroke-width:2;stroke-linejoin:bevel;stroke-miterlimit:4;stroke-dasharray:none;stroke-opacity:1"
       id="r_contours250k_arc_linestring_22">
      <path
         inkscape:connector-curvature="0"
         style="stroke:#006b00;stroke-width:2;stroke-linejoin:bevel;stroke-miterlimit:4;stroke-dasharray:none;stroke-opacity:1"
         id="path71"
         d="m 101,564 6,-23 15,-22 16,-22 20,-21 17,-17 17,-15 17,-11 16,-9 17,-2 17,-1 16,7 17,5 16,10 17,8 16,9 17,10 15,10 17,10 17,10 16,13 16,11 17,8 17,6 16,6 17,2 17,2 16,-2 17,-3 17,-12 17,-17 17,-26 11,-21 14,-29 8,-23 6,-22 5,-22 1,-23 1,-22 0,-22 0,-23 0,-22 0,-22 3,-23 4,-22 14,-22" />
    </g>
    <g
       style="fill:none;stroke:#006b00;stroke-width:2;stroke-linejoin:bevel;stroke-miterlimit:4;stroke-dasharray:none;stroke-opacity:1"
       id="r_contours250k_arc_linestring_23">
      <path
         inkscape:connector-curvature="0"
         style="stroke:#006b00;stroke-width:2;stroke-linejoin:bevel;stroke-miterlimit:4;stroke-dasharray:none;stroke-opacity:1"
         id="path74"
         d="m 554,655 17,-4 16,-4 17,-14 17,-16 11,-23 6,-22 7,-22 4,-23 3,-22 8,-22 6,-23 5,-22 6,-22 5,-22 5,-23 1,-22 2,-22 2,-23 1,-22 4,-22 5,-23 10,-20 15,-22 17,-12 17,-9 17,-3 16,-2 17,1 16,2 17,3 17,2" />
    </g>
    <g
       style="fill:none;stroke:#006b00;stroke-width:2;stroke-linejoin:bevel;stroke-miterlimit:4;stroke-dasharray:none;stroke-opacity:1"
       id="r_contours250k_arc_linestring_24">
      <path
         inkscape:connector-curvature="0"
         style="stroke:#006b00;stroke-width:2;stroke-linejoin:bevel;stroke-miterlimit:4;stroke-dasharray:none;stroke-opacity:1"
         id="path77"
         d="m 390,1261 -28,-6 -17,-3 -16,-10 -16,-18 4,-31 5,-22 9,-21 7,-24 9,-22 5,-22 5,-22 4,-23 3,-22 3,-22 2,-23 3,-22 0,-22 2,-23 -2,-22 -1,-22 -3,-23 -5,-22 -5,-23 -6,-21 -1,-24 -1,-22 20,-14 17,1 15,14 18,21 16,16 17,13 16,15 16,11 17,6 16,5 17,1 17,1 16,-1 17,-2 7,-3" />
    </g>
    <g
       style="fill:none;stroke:#006b00;stroke-width:2;stroke-linejoin:bevel;stroke-miterlimit:4;stroke-dasharray:none;stroke-opacity:1"
       id="r_contours250k_arc_linestring_25">
      <path
         inkscape:connector-curvature="0"
         style="stroke:#006b00;stroke-width:2;stroke-linejoin:bevel;stroke-miterlimit:4;stroke-dasharray:none;stroke-opacity:1"
         id="path80"
         d="m 396,106 -16,-23 -16,-28 7,-24 10,-22 17,-10 17,7 16,15 8,22 -5,34 -19,22 -19,7" />
    </g>
    <g
       style="fill:none;stroke:#006b00;stroke-width:2;stroke-linejoin:bevel;stroke-miterlimit:4;stroke-dasharray:none;stroke-opacity:1"
       id="r_contours250k_arc_linestring_26">
      <path
         inkscape:connector-curvature="0"
         style="stroke:#006b00;stroke-width:2;stroke-linejoin:bevel;stroke-miterlimit:4;stroke-dasharray:none;stroke-opacity:1"
         id="path83"
         d="m 590,-135 -14,27 -9,28 -4,25 -2,23 -4,22 -3,21 -6,23 -5,22 -6,22 -5,22 -5,23 -6,22 -6,22 -9,23 -11,22 -16,22 -18,19 -17,12 -17,8 -17,3 -16,3 -17,-6 -16,-5 -14,-14 -19,-20 -13,-25 -10,-23 -9,-22 -9,-23 -6,-21 -7,-24 -7,-22 -6,-22 -3,-23 -3,-22 1,-22 2,-22 9,-22 12,-22 17,-23 21,-14 16,-8 17,-8" />
    </g>
    <g
       style="fill:none;stroke:#006b00;stroke-width:2;stroke-linejoin:bevel;stroke-miterlimit:4;stroke-dasharray:none;stroke-opacity:1"
       id="r_contours250k_arc_linestring_27">
      <path
         inkscape:connector-curvature="0"
         style="stroke:#006b00;stroke-width:2;stroke-linejoin:bevel;stroke-miterlimit:4;stroke-dasharray:none;stroke-opacity:1"
         id="path86"
         d="m 509,1403 -16,-11 -16,-12 -17,-12 -16,-10 -17,-8 -16,-8 -17,-1 -17,-1 -16,2 -17,1 -17,2 -16,2 -17,-7 -16,-8 -17,-17 -12,-17 -13,-26 -8,-34 -1,-24 8,-22 8,-22 16,-22 15,-22 17,-23 14,-22 10,-21 8,-23 4,-23 4,-22 0,-22 2,-23 -4,-22 -4,-22 -5,-23 -6,-22 -5,-23 -5,-22 -4,-23 -5,-22 -4,-23 -5,-22 -4,-22 -4,-23 3,-22 4,-22 11,-23 26,-22 17,4 17,2 16,8 17,7 16,12 16,13 17,11 16,12 17,10 16,11 17,10 16,9 17,4 16,4 17,-4 17,-3 16,-11 17,-12 13,-20 15,-26 12,-28 7,-30 4,-22 2,-22 1,-23 6,-22 4,-22 6,-23 6,-22 5,-22 5,-22 2,-23 2,-22 2,-22 3,-23 6,-22 7,-20 16,-19 16,-15 17,-7 16,-6 17,1 17,0 17,2 16,1 17,0 16,0 17,-5 17,-5 17,-8 16,-11 17,-13 17,-16" />
    </g>
    <g
       style="fill:none;stroke:#006b00;stroke-width:2;stroke-linejoin:bevel;stroke-miterlimit:4;stroke-dasharray:none;stroke-opacity:1"
       id="r_contours250k_arc_linestring_28">
      <path
         inkscape:connector-curvature="0"
         style="stroke:#006b00;stroke-width:2;stroke-linejoin:bevel;stroke-miterlimit:4;stroke-dasharray:none;stroke-opacity:1"
         id="path89"
         d="m 627,505 9,-23 9,-22 7,-22 7,-22 5,-23 4,-22 1,-22 2,-23 0,-22 1,-22 2,-23 2,-22 8,-22 9,-23 18,-19 17,-14 17,-9 16,-8 17,0 17,0 16,5 17,4 16,3 17,3 16,-1 17,-3 17,-9 17,-11 17,-15 14,-14 17,-19 19,-22 10,-22 10,-23 4,-21 3,-22 -3,-23 -4,-22 -12,-23 -13,-22 -12,-18 -13,-17 -16,-22 -16,-21 -17,-27 -16,-31" />
    </g>
    <g
       style="fill:none;stroke:#006b00;stroke-width:2;stroke-linejoin:bevel;stroke-miterlimit:4;stroke-dasharray:none;stroke-opacity:1"
       id="r_contours250k_arc_linestring_29">
      <path
         inkscape:connector-curvature="0"
         style="stroke:#006b00;stroke-width:2;stroke-linejoin:bevel;stroke-miterlimit:4;stroke-dasharray:none;stroke-opacity:1"
         id="path92"
         d="m 39,652 -8,-22 -4,-23 -2,-22 5,-22 6,-23 12,-22 12,-20 15,-14 17,-15 17,-17 16,-19 17,-22 12,-26 15,-22 12,-15 26,-6 20,1 16,14 16,7 17,17 16,12 17,15 16,11 17,11 16,10 16,10 17,11 16,12 17,11 16,9 16,10 17,7 17,7 10,0" />
    </g>
    <g
       style="fill:none;stroke:#006b00;stroke-width:2;stroke-linejoin:bevel;stroke-miterlimit:4;stroke-dasharray:none;stroke-opacity:1"
       id="r_contours250k_arc_linestring_30">
      <path
         inkscape:connector-curvature="0"
         style="stroke:#006b00;stroke-width:2;stroke-linejoin:bevel;stroke-miterlimit:4;stroke-dasharray:none;stroke-opacity:1"
         id="path95"
         d="m 432,1148 -12,-20 -2,-23 -2,-22 3,-22 3,-23 8,-22 8,-22 24,-16 21,-2 16,5 17,5 16,6 17,7 16,9 17,7 16,3 17,4 17,2 16,2 17,-1 16,0 17,-2 17,-4 17,-10 14,-14 12,-29 5,-31 3,-22 1,-26 0,-22 0,-23 0,-22 0,-22 -1,-23 2,-22 2,-23 3,-22 3,-22 4,-22 4,-23 3,-22" />
    </g>
    <g
       style="fill:none;stroke:#006b00;stroke-width:2;stroke-linejoin:bevel;stroke-miterlimit:4;stroke-dasharray:none;stroke-opacity:1"
       id="r_contours250k_arc_linestring_31">
      <path
         inkscape:connector-curvature="0"
         style="stroke:#006b00;stroke-width:2;stroke-linejoin:bevel;stroke-miterlimit:4;stroke-dasharray:none;stroke-opacity:1"
         id="path98"
         d="m 674,170 18,-22 20,-15 16,-12 17,-7 17,-6 16,1 17,2 17,5 16,5 17,5 16,4 17,-3 17,-4 16,-11 17,-12 15,-16 15,-16 16,-28 10,-22 2,-21 3,-23 -7,-22 -7,-23 -11,-18 -16,-25 -16,-24 -13,-23 -15,-23 -11,-22 -8,-23 -7,-22 -7,-23 -7,-22 -2,-23 -4,-22 -4,-22 -4,-23 -3,-22 -3,-23 -3,-22 -4,-22 -2,-23 -3,-22 -4,-23 -1,-6" />
    </g>
    <g
       style="fill:none;stroke:#006b00;stroke-width:2;stroke-linejoin:bevel;stroke-miterlimit:4;stroke-dasharray:none;stroke-opacity:1"
       id="r_contours250k_arc_linestring_32">
      <path
         inkscape:connector-curvature="0"
         style="stroke:#006b00;stroke-width:2;stroke-linejoin:bevel;stroke-miterlimit:4;stroke-dasharray:none;stroke-opacity:1"
         id="path101"
         d="m 594,79 -12,22 -8,22 -8,23 -1,22 -2,22 3,23 3,22 4,23 5,22 1,23 1,22 -5,22 -6,22 -11,20 -17,14 -14,14 -19,6 -17,4 -16,-5 -17,-5 -16,-13 -17,-12 -16,-9 -17,-8 -16,-11 -17,-11 -13,-13 -19,-16 -17,-24 -16,-24 -13,-23 -11,-22 -10,-23 -9,-22 -8,-23 -8,-22 -8,-23 -9,-22 -8,-23 -9,-22 -7,-23 -8,-22 -9,-22 -11,-21 -8,-24 -10,-22 -5,-23 -6,-22 -3,-23 -2,-19" />
    </g>
    <g
       style="fill:none;stroke:#006b00;stroke-width:2;stroke-linejoin:bevel;stroke-miterlimit:4;stroke-dasharray:none;stroke-opacity:1"
       id="r_contours250k_arc_linestring_33">
      <path
         inkscape:connector-curvature="0"
         style="stroke:#006b00;stroke-width:2;stroke-linejoin:bevel;stroke-miterlimit:4;stroke-dasharray:none;stroke-opacity:1"
         id="path104"
         d="m 1228,2326 -14,-23 -13,-23 -10,-17 -13,-20 -16,-26 -16,-24 -17,-25 -16,-14 -16,-14 -17,-8 -16,-9 -17,-10 -16,-10 -17,-14 -13,-13 -15,-22 -13,-23 -12,-23 -10,-22 -13,-23 -13,-22 -12,-18 -12,-18 -17,-22 -16,-19 -16,-20 -15,-16 -18,-20 -16,-17 -17,-22 -16,-27 -12,-27 -6,-23 -5,-22 -5,-23 -5,-22 -10,-23 -10,-22 -16,-23 -18,-23 -19,-22 -20,-23 -19,-20 -17,-16 -16,-15 -16,-15 -17,-13 -16,-12 -17,-12 -16,-14 -17,-12 -16,-14 -16,-11 -17,-12 -16,-9 -16,-8 -17,-2 -17,-2 -17,0 -16,1 -17,-1 -17,-1 -16,-13 -16,-15 -11,-28 -4,-30 8,-22 7,-23 17,-22 13,-22 12,-22 9,-22 7,-23 7,-22 3,-22 3,-23 1,-22 1,-22 -2,-23 -2,-22 -4,-22 -4,-23 -5,-22 -6,-23 -4,-22" />
    </g>
    <g
       style="fill:none;stroke:#006b00;stroke-width:2;stroke-linejoin:bevel;stroke-miterlimit:4;stroke-dasharray:none;stroke-opacity:1"
       id="r_contours250k_arc_linestring_34">
      <path
         inkscape:connector-curvature="0"
         style="stroke:#006b00;stroke-width:2;stroke-linejoin:bevel;stroke-miterlimit:4;stroke-dasharray:none;stroke-opacity:1"
         id="path107"
         d="m 2305,1364 -5,-22 -11,-25 -11,-27 -17,-23 -14,-14 -23,-21 -16,-12 -17,0 -17,0 -16,3 -17,2 -17,10 -16,9 -17,9 -17,7 -17,4 -16,2 -17,-4 -16,-5 -17,-1 -17,-1 -15,10 -18,11 -17,22 -17,17 -15,14 -19,13 -16,-1 -17,0 -16,-11 -17,-8 -16,-11 -17,-7 -16,-9 -17,-7 -16,-7 -17,-6 -16,-8 -16,-8 -17,-14 -17,-19 -12,-18 -11,-17 -9,-23 -14,-22 -19,-17 -16,-26 -10,-25 -8,-20 -11,-25 -11,-23 -9,-22 -14,-23 -10,-22 -13,-23 -10,-32 -17,-28 -16,-15 -16,-6 -17,-2 -17,0 -16,3 -17,4 -17,-1 -16,-1 -17,-4 -16,-4 -17,-7 -16,-11 -17,-12 -16,-11 -17,-12 -16,-10 -17,-8 -16,-9 -17,-1 -16,-1 -17,1 -17,1 -16,0 -17,1 -16,-1 -17,-1 -17,-1 -16,-2 -17,2 -17,1 -20,7 -26,17 -14,22 -9,23 -8,22 -6,22 -5,22 -4,23 -4,22 -5,24" />
    </g>
    <g
       style="fill:none;stroke:#006b00;stroke-width:2;stroke-linejoin:bevel;stroke-miterlimit:4;stroke-dasharray:none;stroke-opacity:1"
       id="r_contours250k_arc_linestring_35">
      <path
         inkscape:connector-curvature="0"
         style="stroke:#006b00;stroke-width:2;stroke-linejoin:bevel;stroke-miterlimit:4;stroke-dasharray:none;stroke-opacity:1"
         id="path110"
         d="m 1144,132 3,-22 3,-22 2,-23 0,-22 -1,-23 0,-21 0,-22 0,-23 0,-22 1,-22 2,-23 1,-22 1,-22 3,-23 5,-22 11,-22 19,-22 22,-5 17,0 16,8 17,9 12,16 12,28 7,34 2,23 2,22 1,23 0,22 4,23 4,22 9,22 11,20 14,22 17,18 16,25 14,28 9,22" />
    </g>
    <g
       style="fill:none;stroke:#006b00;stroke-width:2;stroke-linejoin:bevel;stroke-miterlimit:4;stroke-dasharray:none;stroke-opacity:1"
       id="r_contours250k_arc_linestring_36">
      <path
         inkscape:connector-curvature="0"
         style="stroke:#006b00;stroke-width:2;stroke-linejoin:bevel;stroke-miterlimit:4;stroke-dasharray:none;stroke-opacity:1"
         id="path113"
         d="m 380,1015 4,-22 4,-22 6,-23 6,-22 9,-22 15,-22 27,-10 17,2 16,3 16,7 17,8 17,9 16,9 17,7 16,8 17,1 16,2 17,-6 17,-9 12,-28 7,-22 4,-22 4,-22 7,-23 4,-22 6,-22 5,-23 7,-22 6,-22 7,-22 5,-23 5,-22 5,-22 3,-23 2,-22" />
    </g>
    <g
       style="fill:none;stroke:#006b00;stroke-width:2;stroke-linejoin:bevel;stroke-miterlimit:4;stroke-dasharray:none;stroke-opacity:1"
       id="r_contours250k_arc_linestring_37">
      <path
         inkscape:connector-curvature="0"
         style="stroke:#006b00;stroke-width:2;stroke-linejoin:bevel;stroke-miterlimit:4;stroke-dasharray:none;stroke-opacity:1"
         id="path116"
         d="m 739,283 11,-23 12,-19 22,-15 23,-5 20,-3 16,1 17,2 16,0 17,1 17,-3 16,-4 17,-7 17,-8 17,-11 16,-12 17,-12 16,-14 18,-17 17,-20 17,-26 11,-24 5,-22 4,-22 2,-22 2,-22 0,-22 0,-23 -4,-22 -4,-23 -7,-22 -10,-23 -12,-18 -16,-24 -12,-25 -12,-23 1,-22 0,-23 20,-22 22,-12 16,-9 17,-7" />
    </g>
    <g
       style="fill:none;stroke:#006b00;stroke-width:2;stroke-linejoin:bevel;stroke-miterlimit:4;stroke-dasharray:none;stroke-opacity:1"
       id="r_contours250k_arc_linestring_38">
      <path
         inkscape:connector-curvature="0"
         style="stroke:#006b00;stroke-width:2;stroke-linejoin:bevel;stroke-miterlimit:4;stroke-dasharray:none;stroke-opacity:1"
         id="path119"
         d="m 325,791 -4,-23 -3,-22 -4,-23 -1,-22 -2,-22 9,-23 18,-12 17,-5 16,7 17,7 16,13 17,12 16,15 17,15 16,12 16,13 17,9 16,7 17,2 17,2 16,-3 17,-3 17,-11 15,-10 18,-20 15,-22 12,-22 10,-23 8,-22 7,-22 3,-22 3,-23 1,-22 1,-22 5,-23 4,-22 6,-22 5,-23 5,-22 5,-22 2,-22 3,-23 3,-22 5,-22" />
    </g>
    <g
       style="fill:none;stroke:#006b00;stroke-width:2;stroke-linejoin:bevel;stroke-miterlimit:4;stroke-dasharray:none;stroke-opacity:1"
       id="r_contours250k_arc_linestring_39">
      <path
         inkscape:connector-curvature="0"
         style="stroke:#006b00;stroke-width:2;stroke-linejoin:bevel;stroke-miterlimit:4;stroke-dasharray:none;stroke-opacity:1"
         id="path122"
         d="m 9,417 -15,14 -17,17 -17,24 -10,22 -8,22 -7,23 -6,22 -5,22 -8,22 -8,23 -10,22 -11,18 -14,17 -17,18 -16,13 -17,11 -17,9 -17,10 -17,6 -16,7 -17,3 -17,2 -16,1 -17,0 -16,1 -17,2 -17,2 -16,3 -17,5 -17,6 -17,8 -16,10 -17,6 -17,7 -17,7 -16,8 -17,2 -17,3 -16,-4 -17,-5 -16,-15 -14,-16 -10,-31 -3,-26 -2,-29 -1,-23 -1,-22 -4,-22 -4,-23 -5,-22 -5,-23 -4,-22 -4,-23 1,-22 0,-22 5,-23 5,-22 10,-22 12,-22 14,-19 17,-15 16,-12 18,-8" />
    </g>
    <g
       style="fill:none;stroke:#006b00;stroke-width:2;stroke-linejoin:bevel;stroke-miterlimit:4;stroke-dasharray:none;stroke-opacity:1"
       id="r_contours250k_arc_linestring_40">
      <path
         inkscape:connector-curvature="0"
         style="stroke:#006b00;stroke-width:2;stroke-linejoin:bevel;stroke-miterlimit:4;stroke-dasharray:none;stroke-opacity:1"
         id="path125"
         d="m 395,191 -16,-7 -17,-8 -12,-17 -13,-27 -7,-20 -8,-26 -8,-28 -2,-25 0,-25 7,-22 8,-22 22,-17 17,-9 16,-2 17,-2 17,3 16,5 17,9 16,13 14,25 9,21 1,23 1,22 -4,22 -4,23 -10,22 -10,18 -17,22 -17,16 -16,6 -17,7" />
    </g>
    <g
       style="fill:none;stroke:#006b00;stroke-width:2;stroke-linejoin:bevel;stroke-miterlimit:4;stroke-dasharray:none;stroke-opacity:1"
       id="r_contours250k_arc_linestring_41">
      <path
         inkscape:connector-curvature="0"
         style="stroke:#006b00;stroke-width:2;stroke-linejoin:bevel;stroke-miterlimit:4;stroke-dasharray:none;stroke-opacity:1"
         id="path128"
         d="m 603,1533 -17,-16 -20,-18 -21,-17 -20,-12 -16,-10 -17,-10 -15,-10 -18,-9 -16,-9 -17,-8 -16,-8 -17,2 -17,2 -16,7 -17,9 -17,9 -17,11 -16,-1 -17,0 -16,-11 -17,-15 -15,-26 -15,-22 -13,-23 -15,-23 -16,-22 -10,-18 -13,-24 -8,-26 -6,-22 2,-23 3,-22 10,-22 14,-22 21,-19 16,-16 16,-11 18,-16 17,-15 17,-23 17,-30 4,-25 3,-22 -4,-23 -3,-22 -8,-23 -8,-22 -8,-23 -7,-16" />
    </g>
    <g
       style="fill:none;stroke:#006b00;stroke-width:2;stroke-linejoin:bevel;stroke-miterlimit:4;stroke-dasharray:none;stroke-opacity:1"
       id="r_contours250k_arc_linestring_42">
      <path
         inkscape:connector-curvature="0"
         style="stroke:#006b00;stroke-width:2;stroke-linejoin:bevel;stroke-miterlimit:4;stroke-dasharray:none;stroke-opacity:1"
         id="path131"
         d="m 831,1649 -14,-23 -12,-17 -11,-28 -16,-23 -15,-22 -19,-23 -19,-23 -17,-20 -17,-18 -16,-17 -14,-16 -17,-19 -18,-14 -16,-13 -17,-15 -16,-18 -17,-15 -13,-13 -19,-20 -17,-16 -15,-13 -17,-17 -17,-15 -15,-12 -18,-16 -16,-16 -16,-31 -8,-29 1,-22 0,-22 4,-23 3,-22 4,-22 5,-23 6,-22 11,-22 16,-15 27,-7 17,0 17,6 17,6 16,8 17,8 16,8 17,8 16,3 17,3 16,-1 17,-1 17,-8 21,-14 15,-22 10,-22 4,-23 3,-22 2,-22 1,-23 3,-22 2,-22 3,-23 2,-22 5,-22 4,-23 5,-22 5,-22 4,-23 5,-22 3,-22 3,-23 2,-22 1,-22 4,-23" />
    </g>
    <g
       style="fill:none;stroke:#006b00;stroke-width:2;stroke-linejoin:bevel;stroke-miterlimit:4;stroke-dasharray:none;stroke-opacity:1"
       id="r_contours250k_arc_linestring_43">
      <path
         inkscape:connector-curvature="0"
         style="stroke:#006b00;stroke-width:2;stroke-linejoin:bevel;stroke-miterlimit:4;stroke-dasharray:none;stroke-opacity:1"
         id="path134"
         d="m 500,517 23,0 17,-7 15,-8 18,-15 17,-17 17,-28 14,-27 7,-22 6,-23 2,-22 2,-22 0,-23 -1,-22 -2,-22 -2,-23 -1,-22 -2,-23 7,-22 8,-19 17,-19 17,-15 15,-13 18,-9 17,-8 17,-5 16,-4 17,3 17,2 16,5 17,5 16,4 17,4 16,-4 17,-5 17,-13 17,-14 12,-24 11,-23 1,-21 2,-22 -8,-21 -10,-24 -13,-23 -14,-22 -11,-21 -10,-24 -8,-21 -11,-25 -6,-22 -6,-22 -5,-23 -5,-22 -4,-23 -4,-22 -5,-23" />
    </g>
    <g
       style="fill:none;stroke:#006b00;stroke-width:2;stroke-linejoin:bevel;stroke-miterlimit:4;stroke-dasharray:none;stroke-opacity:1"
       id="r_contours250k_arc_linestring_44">
      <path
         inkscape:connector-curvature="0"
         style="stroke:#006b00;stroke-width:2;stroke-linejoin:bevel;stroke-miterlimit:4;stroke-dasharray:none;stroke-opacity:1"
         id="path137"
         d="m 459,347 17,-4 16,-5 17,-14 17,-22 7,-23 3,-22 1,-22 2,-23 1,-22 2,-22 3,-23 5,-22 7,-22 7,-22 11,-23 10,-22 12,-18 17,-22 17,-17 17,-11 17,-17 16,-12 17,-10 17,-15 17,-26 9,-27 6,-23 2,-22 1,-22 0,-18" />
    </g>
    <g
       style="fill:none;stroke:#006b00;stroke-width:2;stroke-linejoin:bevel;stroke-miterlimit:4;stroke-dasharray:none;stroke-opacity:1"
       id="r_contours250k_arc_linestring_45">
      <path
         inkscape:connector-curvature="0"
         style="stroke:#006b00;stroke-width:2;stroke-linejoin:bevel;stroke-miterlimit:4;stroke-dasharray:none;stroke-opacity:1"
         id="path140"
         d="m 459,347 -16,-5 -17,-2 -17,-4 -16,-3 -17,-9 -16,-8 -16,-17 -17,-17 -16,-26 -15,-25 -9,-22 -10,-23 -8,-22 -8,-21 -7,-24 -7,-21 -8,-24 -7,-21 -5,-24 -5,-23 -3,-21 -5,-23 3,-22 4,-22 9,-22 12,-23 12,-18 14,-13 16,-11 17,-10 17,-8 17,-6 16,-19 4,-25 1,-22 -9,-23 -8,-22 -18,-23 -13,-22 -18,-23 -15,-23 -18,-20 -20,-23 -12,-24 -9,-23 5,-22 7,-23 27,-19 19,-10 16,-9 17,-9 17,-10 17,-7 16,-8 17,-7 17,-5 17,-6 16,-10 17,-8 17,-7 16,-6 17,-4 17,-4 16,-2 17,-3 17,6 16,3 17,7 16,8 17,18 14,13 14,19 18,22 8,23 9,22 9,23 8,20 3,25 2,22 4,23 4,22 5,23 6,22 7,23 8,22 2,22 5,23 0,22 0,5" />
    </g>
    <g
       style="fill:none;stroke:#006b00;stroke-width:2;stroke-linejoin:bevel;stroke-miterlimit:4;stroke-dasharray:none;stroke-opacity:1"
       id="r_contours250k_arc_linestring_46">
      <path
         inkscape:connector-curvature="0"
         style="stroke:#006b00;stroke-width:2;stroke-linejoin:bevel;stroke-miterlimit:4;stroke-dasharray:none;stroke-opacity:1"
         id="path143"
         d="m 491,462 16,-2 17,-2 17,-13 17,-12 15,-19 13,-22 10,-22 4,-22 3,-23 -1,-22 -1,-23 -4,-22 -4,-22 -4,-23 -3,-22 2,-23 1,-22 9,-22 12,-22 17,-22 19,-16 17,-13 17,-11 17,-9 16,-6 17,-6 17,-2 16,-2 17,3 16,3 17,5 17,5 16,0 17,-1 16,-14 5,-21 4,-22 -7,-23 -5,-22 -10,-23 -10,-22 -7,-23" />
    </g>
    <g
       style="fill:none;stroke:#006b00;stroke-width:2;stroke-linejoin:bevel;stroke-miterlimit:4;stroke-dasharray:none;stroke-opacity:1"
       id="r_contours250k_arc_linestring_47">
      <path
         inkscape:connector-curvature="0"
         style="stroke:#006b00;stroke-width:2;stroke-linejoin:bevel;stroke-miterlimit:4;stroke-dasharray:none;stroke-opacity:1"
         id="path146"
         d="m 1144,132 -5,22 -4,23 -6,22 -2,22 -1,23 3,22 3,23 9,21 13,24 20,19 16,11 16,13 17,12 14,13 19,14 16,20 16,17 16,17 16,23 15,22 8,23 9,22 -13,22 -13,23 -23,15 -17,10 -17,0 -17,1 -16,-10 -16,-9 -17,-14 -16,-17 -17,-11 -16,-9 -10,-4" />
    </g>
    <g
       style="fill:none;stroke:#006b00;stroke-width:2;stroke-linejoin:bevel;stroke-miterlimit:4;stroke-dasharray:none;stroke-opacity:1"
       id="r_contours250k_arc_linestring_48">
      <path
         inkscape:connector-curvature="0"
         style="stroke:#006b00;stroke-width:2;stroke-linejoin:bevel;stroke-miterlimit:4;stroke-dasharray:none;stroke-opacity:1"
         id="path149"
         d="m 902,1113 11,-17 12,-21 16,-29 11,-22 12,-21 15,-23 16,-22 20,-20 17,-13 16,-11 18,-12 15,-10 18,-10 17,-8 17,-5 16,-4 17,2 16,2 17,5 16,4 17,6 17,4 16,4 17,4 16,2 17,2 16,0 17,0 17,0 16,-1 17,7 16,9 17,16 16,21 16,28 15,28 15,24 12,23 12,22 11,23 11,22" />
    </g>
    <g
       style="fill:none;stroke:#006b00;stroke-width:2;stroke-linejoin:bevel;stroke-miterlimit:4;stroke-dasharray:none;stroke-opacity:1"
       id="r_contours250k_arc_linestring_49">
      <path
         inkscape:connector-curvature="0"
         style="stroke:#006b00;stroke-width:2;stroke-linejoin:bevel;stroke-miterlimit:4;stroke-dasharray:none;stroke-opacity:1"
         id="path152"
         d="m 541,1512 -17,-10 -16,-12 -16,-8 -17,-9 -16,-7 -17,-9 -16,-8 -17,-9 -17,4 -16,4 -17,11 -17,10 -17,10 -16,11 -17,2 -17,1 -16,-9 -17,-9 -13,-15 -15,-22 -13,-23 -12,-22 -12,-20 -16,-25 -16,-22 -16,-18 -17,-25 -16,-23 -11,-26 -10,-22 -2,-23 -3,-22 4,-22 4,-23 12,-22 16,-22 23,-17 20,-10 17,-8 17,-6 16,-10 17,-10 17,-15 14,-16 11,-29 -1,-33 -2,-22 -10,-23 -10,-22 -10,-23 -12,-23 -10,-19 -13,-26 -14,-22 -14,-23 -16,-23 -16,-22 -13,-23 -11,-21 -6,-24 -5,-22 6,-22" />
    </g>
  </g>
  <!-- QGIS extent for clipping, eg in Inkscape -->
  <g
     id="qgisviewbox"
     inkscape:groupmode="layer"
     inkscape:label="qgisviewbox"
     stroke="rgb(255,0,0)"
     stroke-width="1"
     fill="none">
    <path
       d="M 0,872 L 1156,872 L 1156,0 L 0,0 L 0,872 "
       id="path155" />
  </g>
</svg>
